<mxfile host="app.diagrams.net" modified="2023-12-22T18:09:25.465Z" agent="Mozilla/5.0 (Windows NT 10.0; Win64; x64) AppleWebKit/537.36 (KHTML, like Gecko) Chrome/120.0.0.0 Safari/537.36" etag="HOy9u0eGGh7-V8PyWMJS" version="22.1.11" type="device">
  <diagram name="PÃ¡gina-1" id="AhROIFkPfJT7fVBIMRBf">
    <mxGraphModel dx="1290" dy="557" grid="1" gridSize="10" guides="1" tooltips="1" connect="1" arrows="1" fold="1" page="1" pageScale="1" pageWidth="827" pageHeight="1169" math="0" shadow="0">
      <root>
        <mxCell id="0" />
        <mxCell id="1" parent="0" />
        <mxCell id="Uaqw6-eDainwi5Q4oHqR-1" value="MDTarefas" style="shape=folder;fontStyle=1;spacingTop=10;tabWidth=40;tabHeight=14;tabPosition=left;html=1;whiteSpace=wrap;verticalAlign=top;fillColor=#72C9F7;" parent="1" vertex="1">
          <mxGeometry x="90" y="280" width="630" height="560" as="geometry" />
        </mxCell>
        <mxCell id="Uaqw6-eDainwi5Q4oHqR-5" value="Interface Adapters" style="shape=folder;fontStyle=1;spacingTop=10;tabWidth=40;tabHeight=14;tabPosition=left;html=1;whiteSpace=wrap;verticalAlign=top;fillColor=#c0ffc0;" parent="1" vertex="1">
          <mxGeometry x="136.88" y="330" width="536.25" height="140" as="geometry" />
        </mxCell>
        <mxCell id="Uaqw6-eDainwi5Q4oHqR-6" value="Controllers" style="shape=folder;fontStyle=1;spacingTop=10;tabWidth=40;tabHeight=14;tabPosition=left;html=1;whiteSpace=wrap;verticalAlign=top;fillColor=#e1d5e7;strokeColor=#9673a6;" parent="1" vertex="1">
          <mxGeometry x="160.99" y="379" width="150" height="70" as="geometry" />
        </mxCell>
        <mxCell id="Uaqw6-eDainwi5Q4oHqR-7" value="Repos" style="shape=folder;fontStyle=1;spacingTop=10;tabWidth=40;tabHeight=14;tabPosition=left;html=1;whiteSpace=wrap;fillColor=#72C9F7;" parent="1" vertex="1">
          <mxGeometry x="510" y="389" width="140" height="60" as="geometry" />
        </mxCell>
        <mxCell id="Uaqw6-eDainwi5Q4oHqR-10" value="Services" style="shape=folder;fontStyle=1;spacingTop=10;tabWidth=40;tabHeight=14;tabPosition=left;html=1;whiteSpace=wrap;verticalAlign=top;fillColor=#ffafaf;" parent="1" vertex="1">
          <mxGeometry x="131.87" y="500" width="536.25" height="140" as="geometry" />
        </mxCell>
        <mxCell id="Uaqw6-eDainwi5Q4oHqR-11" value="IRepos" style="shape=folder;fontStyle=1;spacingTop=10;tabWidth=40;tabHeight=14;tabPosition=left;html=1;whiteSpace=wrap;fillColor=#72C9F7;" parent="1" vertex="1">
          <mxGeometry x="510" y="559" width="140" height="60" as="geometry" />
        </mxCell>
        <mxCell id="Uaqw6-eDainwi5Q4oHqR-12" value="IServices" style="shape=folder;fontStyle=1;spacingTop=10;tabWidth=40;tabHeight=14;tabPosition=left;html=1;whiteSpace=wrap;fillColor=#72C9F7;" parent="1" vertex="1">
          <mxGeometry x="150" y="559" width="140" height="60" as="geometry" />
        </mxCell>
        <mxCell id="Uaqw6-eDainwi5Q4oHqR-13" value="ImplServices" style="shape=folder;fontStyle=1;spacingTop=10;tabWidth=40;tabHeight=14;tabPosition=left;html=1;whiteSpace=wrap;fillColor=#72C9F7;" parent="1" vertex="1">
          <mxGeometry x="329.99" y="559" width="140" height="60" as="geometry" />
        </mxCell>
        <mxCell id="Uaqw6-eDainwi5Q4oHqR-14" value="Models" style="shape=folder;fontStyle=1;spacingTop=10;tabWidth=40;tabHeight=14;tabPosition=left;html=1;whiteSpace=wrap;verticalAlign=top;fillColor=#ffe0c0;" parent="1" vertex="1">
          <mxGeometry x="131.87" y="670" width="536.25" height="140" as="geometry" />
        </mxCell>
        <mxCell id="Uaqw6-eDainwi5Q4oHqR-15" value="Exceptions" style="shape=folder;fontStyle=1;spacingTop=10;tabWidth=40;tabHeight=14;tabPosition=left;html=1;whiteSpace=wrap;fillColor=#72C9F7;" parent="1" vertex="1">
          <mxGeometry x="490" y="729" width="140" height="60" as="geometry" />
        </mxCell>
        <mxCell id="Uaqw6-eDainwi5Q4oHqR-17" value="Tarefa" style="shape=folder;fontStyle=1;spacingTop=10;tabWidth=40;tabHeight=14;tabPosition=left;html=1;whiteSpace=wrap;fillColor=#72C9F7;" parent="1" vertex="1">
          <mxGeometry x="210" y="729" width="140" height="60" as="geometry" />
        </mxCell>
        <mxCell id="Uaqw6-eDainwi5Q4oHqR-18" value="" style="endArrow=open;endSize=12;dashed=1;html=1;rounded=0;entryX=0.502;entryY=0.239;entryDx=0;entryDy=0;entryPerimeter=0;exitX=0.5;exitY=1;exitDx=0;exitDy=0;exitPerimeter=0;" parent="1" source="Uaqw6-eDainwi5Q4oHqR-13" target="Uaqw6-eDainwi5Q4oHqR-17" edge="1">
          <mxGeometry width="160" relative="1" as="geometry">
            <mxPoint x="290" y="610" as="sourcePoint" />
            <mxPoint x="450" y="610" as="targetPoint" />
          </mxGeometry>
        </mxCell>
        <mxCell id="Uaqw6-eDainwi5Q4oHqR-19" value="" style="endArrow=open;endSize=12;dashed=1;html=1;rounded=0;entryX=0;entryY=0;entryDx=20;entryDy=0;entryPerimeter=0;exitX=0.5;exitY=1;exitDx=0;exitDy=0;exitPerimeter=0;" parent="1" source="Uaqw6-eDainwi5Q4oHqR-13" target="Uaqw6-eDainwi5Q4oHqR-15" edge="1">
          <mxGeometry width="160" relative="1" as="geometry">
            <mxPoint x="410" y="629" as="sourcePoint" />
            <mxPoint x="410" y="753" as="targetPoint" />
          </mxGeometry>
        </mxCell>
        <mxCell id="Uaqw6-eDainwi5Q4oHqR-21" value="" style="endArrow=block;dashed=1;endFill=0;endSize=12;html=1;rounded=0;exitX=0;exitY=0;exitDx=0;exitDy=37;exitPerimeter=0;entryX=0;entryY=0;entryDx=140;entryDy=37;entryPerimeter=0;" parent="1" source="Uaqw6-eDainwi5Q4oHqR-13" target="Uaqw6-eDainwi5Q4oHqR-12" edge="1">
          <mxGeometry width="160" relative="1" as="geometry">
            <mxPoint x="350" y="570" as="sourcePoint" />
            <mxPoint x="510" y="570" as="targetPoint" />
          </mxGeometry>
        </mxCell>
        <mxCell id="Uaqw6-eDainwi5Q4oHqR-22" value="" style="endArrow=open;endSize=12;dashed=1;html=1;rounded=0;exitX=0;exitY=0;exitDx=140;exitDy=37;exitPerimeter=0;entryX=0;entryY=0;entryDx=0;entryDy=37;entryPerimeter=0;" parent="1" source="Uaqw6-eDainwi5Q4oHqR-13" target="Uaqw6-eDainwi5Q4oHqR-11" edge="1">
          <mxGeometry width="160" relative="1" as="geometry">
            <mxPoint x="350" y="570" as="sourcePoint" />
            <mxPoint x="510" y="570" as="targetPoint" />
          </mxGeometry>
        </mxCell>
        <mxCell id="Uaqw6-eDainwi5Q4oHqR-23" value="" style="endArrow=open;endSize=12;dashed=1;html=1;rounded=0;exitX=0.5;exitY=1;exitDx=0;exitDy=0;exitPerimeter=0;entryX=0;entryY=0;entryDx=90;entryDy=14;entryPerimeter=0;" parent="1" source="Uaqw6-eDainwi5Q4oHqR-6" target="Uaqw6-eDainwi5Q4oHqR-12" edge="1">
          <mxGeometry width="160" relative="1" as="geometry">
            <mxPoint x="400" y="449" as="sourcePoint" />
            <mxPoint x="520" y="606" as="targetPoint" />
          </mxGeometry>
        </mxCell>
        <mxCell id="Uaqw6-eDainwi5Q4oHqR-24" value="" style="endArrow=block;dashed=1;endFill=0;endSize=12;html=1;rounded=0;exitX=0.5;exitY=1;exitDx=0;exitDy=0;exitPerimeter=0;entryX=0.502;entryY=0.241;entryDx=0;entryDy=0;entryPerimeter=0;" parent="1" source="Uaqw6-eDainwi5Q4oHqR-7" target="Uaqw6-eDainwi5Q4oHqR-11" edge="1">
          <mxGeometry width="160" relative="1" as="geometry">
            <mxPoint x="340" y="606" as="sourcePoint" />
            <mxPoint x="300" y="606" as="targetPoint" />
          </mxGeometry>
        </mxCell>
      </root>
    </mxGraphModel>
  </diagram>
</mxfile>
